<?xml version="1.0" encoding="UTF-8"?>
<svg id="Layer_2" data-name="Layer 2" xmlns="http://www.w3.org/2000/svg" viewBox="0 0 512 512">
  <defs>
    <style>
      .cls-1 {
        fill: #99f;
      }

      .cls-2 {
        fill: #00005b;
      }
    </style>
  </defs>
  <g id="_Ñëîé_1" data-name="Ñëîé 1">
    <g>
      <path class="cls-2" d="m420.2,512H91.8c-50.7,0-91.8-42.21-91.8-94.28V94.28C0,42.21,41.1,0,91.8,0h328.39c50.7,0,91.8,42.21,91.8,94.28v323.44c0,52.07-41.1,94.28-91.8,94.28Z"/>
      <g>
        <path class="cls-1" d="m168.28,136.71c8.33,0,16.66,0,24.99,0,3.88,0,3.9,0,5.16,3.63,25.22,72.49,50.43,144.97,75.65,217.46.19.54.39,1.08.5,1.64.44,2.25-.16,3.05-2.43,3.07-5.05.04-10.09.02-15.14.02-8.97,0-17.94,0-26.91,0-3.83,0-4.15-.23-5.36-3.85-5.3-15.88-10.63-31.75-15.85-47.65-.63-1.93-1.45-2.65-3.52-2.65-24.43.08-48.86.08-73.28,0-1.97,0-2.75.63-3.33,2.51-4.85,15.68-9.81,31.33-14.74,46.99-1.27,4.04-1.85,4.49-5.97,4.49-11.93,0-23.87,0-35.8,0-4.94,0-5.45-.72-3.85-5.43,15.82-46.46,31.66-92.91,47.47-139.37,7.05-20.72,14.2-41.4,20.93-62.23,1.53-4.72,1.61-9.97,2.13-14.99.36-3.47.31-3.63,3.64-3.63,8.57,0,17.14,0,25.71,0Zm-26.04,128.86h52.94c-9.06-29.93-18.08-59.74-26.86-88.72-8.54,29.05-17.3,58.83-26.08,88.72Z"/>
        <path class="cls-1" d="m427.24,282.68c2.01,0,9.13.03,9.13.03,0,0-.05-17.99-.33-23.93-.49-10.08-2.02-20.1-5.22-29.51-4.97-14.66-14.32-27.24-27.51-35.1-7.07-4.22-14.9-7-22.95-8.48-28.63-5.28-60.14,1.75-78.14,26.57-14.39,19.85-18.59,45.92-18.54,70.1,0,0,.17,74.09,76.78,79.95,0,0,33.57,2.59,61-9.66v-37.45s-85.26,26.62-90.82-32.84c13.09.04,26.18.09,39.28.14,19.11.06,38.22.13,57.33.19Zm-65.31-64.06c17.29,0,31.3,14.35,31.3,32.04h-62.61c0-17.7,14.02-32.04,31.3-32.04Z"/>
      </g>
    </g>
  </g>
</svg>