<?xml version="1.0" encoding="UTF-8"?>
<svg id="Layer_2" data-name="Layer 2" xmlns="http://www.w3.org/2000/svg" viewBox="0 0 512 512">
  <defs>
    <style>
      .cls-1 {
        fill: #ff9a00;
      }

      .cls-2 {
        fill: #2d0402;
      }
    </style>
  </defs>
  <g id="_Ñëîé_1" data-name="Ñëîé 1">
    <g>
      <path class="cls-2" d="m420.05,512H91.95c-50.78,0-91.95-42.14-91.95-94.13V94.13C0,42.14,41.17,0,91.95,0h328.1c50.78,0,91.95,42.14,91.95,94.13v323.74c0,51.99-41.17,94.13-91.95,94.13Z"/>
      <g>
        <rect class="cls-1" x="349.62" y="205.02" width="46.84" height="175.26"/>
        <ellipse class="cls-1" cx="373.04" cy="159.28" rx="26.92" ry="27.56"/>
        <path class="cls-1" d="m248.18,149.36h-60.34c0,10.38-1.76,20.69-5.2,30.46l-70.6,200.46h49.43l17.76-55.23,79.21-.59,18.1,55.82h52.27l-80.63-230.92Zm-55.96,130.49l25.76-89.65,27.02,89.65h-52.77Z"/>
      </g>
    </g>
  </g>
</svg>