<?xml version="1.0" encoding="UTF-8"?>
<svg id="Layer_2" data-name="Layer 2" xmlns="http://www.w3.org/2000/svg" viewBox="0 0 512 512">
  <defs>
    <style>
      .cls-1 {
        fill: #001e36;
      }

      .cls-2 {
        fill: #30a8ff;
      }
    </style>
  </defs>
  <g id="_Ñëîé_1" data-name="Ñëîé 1">
    <g>
      <path class="cls-1" d="m420.05,512H91.95c-50.78,0-91.95-42.14-91.95-94.13V94.13C0,42.14,41.17,0,91.95,0h328.1c50.78,0,91.95,42.14,91.95,94.13v323.74c0,51.99-41.17,94.13-91.95,94.13Z"/>
      <path class="cls-2" d="m200.82,131.17h-83.45v227.62h46.84v-71.1h36.61c21.11,0,40.22-8.76,54.06-22.92,13.83-14.16,22.39-33.73,22.39-55.34,0-43.22-34.23-78.26-76.45-78.26Zm19.59,104.37c-6.53,6.68-15.55,10.81-25.51,10.81h-30.69v-73.85h30.69c19.92,0,36.07,16.53,36.07,36.93,0,10.2-4.04,19.43-10.56,26.11Z"/>
      <path class="cls-2" d="m423.44,307.75c0,15.11-6.88,29.52-17.74,39.6-12.24,11.36-29.24,16.2-45.4,17.46-1.94.15-3.88.25-5.82.29-17.96.37-36.84-3.53-53.16-11.25-.17-.08-.35-.16-.52-.25.03-13.4.05-26.8.08-40.2,0,.73,12.98,3.95,14.59,4.49,14.81,4.97,32.5,8.7,48.11,6.65,3.3-.43,6.68-1.27,9.24-3.45,9.63-8.18-.13-18.37-7.98-22.27-8.51-4.24-17.67-6.91-26.36-10.74-8.24-3.63-16.1-8.33-22.66-14.59-21.71-20.7-20.86-55.47,1.26-75.59,12.53-11.39,29.44-15,45.77-15.74,16.9-.76,33.96,2.32,49.61,8.91.6.25,1.24.54,1.57,1.11.28.48.29,1.08.29,1.65.02,13.68.03,27.37.05,41.05-2.55-2.23-6.03-3.15-9.05-4.5-3.27-1.47-6.62-2.76-10.03-3.88-12.05-3.96-27.71-7.61-40.08-3.26-4.55,1.6-7.94,4.91-7.94,10.07,0,7.97,7.63,11.81,13.88,14.72,7.73,3.61,15.97,5.8,23.68,9.46,20.01,9.5,38.62,25.8,38.62,50.26Z"/>
    </g>
  </g>
</svg>