<svg width="156" height="156" viewBox="0 0 156 156" fill="none" xmlns="http://www.w3.org/2000/svg">
<path fill-rule="evenodd" clip-rule="evenodd" d="M54.2633 18.5403C44.7174 19.8865 33.699 24.069 26.2099 29.1897C21.448 32.4457 14.6717 39.1746 11.4943 43.8028C-3.0972 65.0549 -2.41075 93.6224 13.168 113.464C26.6536 130.64 49.6729 139.566 71.8148 136.206C77.653 135.32 86.8596 132.4 90.3957 130.314L92.74 128.93V110.918C92.74 101.012 92.5616 92.9121 92.3442 92.919C92.1269 92.9259 91.2362 93.9098 90.3656 95.1056C88.1876 98.0971 82.5773 102.423 77.9063 104.712C67.9869 109.573 57.3399 109.51 47.841 104.535C40.5634 100.723 35.4655 94.6796 32.811 86.7177C31.5684 82.9899 31.4518 81.9816 31.6581 76.7159C32.0016 67.9301 34.4831 62.2622 40.6727 56.1262C44.1761 52.6524 51.3824 48.7928 56.2276 47.7946C65.4178 45.9018 75.6739 48.489 84.1676 54.8443C85.9821 56.2017 87.5592 57.3125 87.6721 57.3125C87.8246 57.3125 99.873 41.8138 104.47 35.7028C105.616 34.1803 90.1783 24.4047 82.2882 21.6566C73.9258 18.7437 62.127 17.4316 54.2633 18.5403ZM85.5041 20.0899C91.0009 22.2845 96.4508 25.3026 101.182 28.7716C104.532 31.2281 108.041 34.4815 108.041 35.1307C108.041 35.3756 105.192 39.2521 101.71 43.7438L95.3781 51.9113V94.4559V137H111.207H127.036V92.375V47.75H141.018H155V32.875V18L117.67 18.0143L80.3407 18.0287L85.5041 20.0899Z" fill="white"/>
</svg>
